<svg version="1.1" viewBox="0.0 0.0 3000.0 3000.0" fill="none" stroke="none" stroke-linecap="square" stroke-miterlimit="10" xmlns:xlink="http://www.w3.org/1999/xlink" xmlns="http://www.w3.org/2000/svg"><clipPath id="p.0"><path d="m0 0l3000.0 0l0 3000.0l-3000.0 0l0 -3000.0z" clip-rule="nonzero"/></clipPath><g clip-path="url(#p.0)"><path fill="#000000" fill-opacity="0.0" d="m0 0l3000.0 0l0 3000.0l-3000.0 0z" fill-rule="evenodd"/><path fill="#00d3f2" d="m537.6181 1245.7902l0 621.50806l94.17511 94.17517l470.86426 0l0 0l0 -809.8583l0 0l-470.86426 0z" fill-rule="evenodd"/><path fill="#00d3f2" d="m693.1582 1416.8341l0 279.4104l42.326294 42.326294l211.62646 0l0 0l0 -364.063l0 0l-211.62646 0z" fill-rule="evenodd"/><path fill="#00d3f2" d="m2462.3818 1245.6256l0 621.50806l-94.17505 94.17505l-470.86426 0l0 0l0 -809.8583l0 0l470.86426 0z" fill-rule="evenodd"/><path fill="#00d3f2" d="m2306.8418 1416.6694l0 279.4104l-42.326416 42.326294l-211.62622 0l0 0l0 -364.063l0 0l211.62622 0z" fill-rule="evenodd"/><defs><linearGradient id="p.1" gradientUnits="userSpaceOnUse" gradientTransform="matrix(25.848082319198316 0.0 0.0 25.848082319198316 0.0 0.0)" spreadMethod="pad" x1="42.4836442931212" y1="50.69546596323527" x2="68.33172661231951" y2="50.69546596323527"><stop offset="0.0" stop-color="#00d3f2"/><stop offset="0.99999994" stop-color="#00d3f2" stop-opacity="0.0"/><stop offset="1.0" stop-color="#ffffff" stop-opacity="0.0"/></linearGradient></defs><path fill="url(#p.1)" d="m1098.1207 1151.6221l668.1234 0l0 158.75854l-668.1234 0z" fill-rule="evenodd"/><defs><linearGradient id="p.2" gradientUnits="userSpaceOnUse" gradientTransform="matrix(25.848082319198316 0.0 0.0 25.848082319198316 0.0 0.0)" spreadMethod="pad" x1="42.55634852969305" y1="75.88464075294378" x2="68.40443084889137" y2="75.88464075294378"><stop offset="0.0" stop-color="#00d3f2"/><stop offset="0.99999994" stop-color="#00d3f2" stop-opacity="0.0"/><stop offset="1.0" stop-color="#ffffff" stop-opacity="0.0"/></linearGradient></defs><path fill="url(#p.2)" d="m1100.0 1802.7139l668.1234 0l0 158.75854l-668.1234 0z" fill-rule="evenodd"/><defs><linearGradient id="p.3" gradientUnits="userSpaceOnUse" gradientTransform="matrix(0.0 25.84086229292658 -25.84086229292658 0.0 0.0 0.0)" spreadMethod="pad" x1="75.81286164680445" y1="-73.43805846699512" x2="101.65372393973102" y2="-73.43805846699512"><stop offset="0.0" stop-color="#00d3f2"/><stop offset="0.99999994" stop-color="#00d3f2" stop-opacity="0.0"/><stop offset="1.0" stop-color="#ffffff" stop-opacity="0.0"/></linearGradient></defs><path fill="url(#p.3)" d="m2056.4614 1959.0697l0 667.7501l-158.75867 0l0 -667.7501z" fill-rule="evenodd"/><path fill="#00d3f2" d="m1102.6644 531.0837l0 628.95795l-157.68152 0l0 -628.95795z" fill-rule="evenodd"/><path fill="#00d3f2" d="m1897.6965 530.69763l156.97632 0l-156.97632 -157.32281z" fill-rule="evenodd"/><path stroke="#00d3f2" stroke-width="5.703412073490814" stroke-linejoin="round" stroke-linecap="butt" d="m1897.6965 530.69763l156.97632 0l-156.97632 -157.32281z" fill-rule="evenodd"/><path fill="#00d3f2" d="m1897.3367 530.8623l-795.12244 0l0 -157.68027l795.12244 0z" fill-rule="evenodd"/><path fill="#00d3f2" d="m2055.017 530.8623l0 628.958l-157.68152 0l0 -628.958z" fill-rule="evenodd"/><path fill="#00d3f2" d="m1102.311 530.6902l-156.97644 0l156.97644 -157.32288z" fill-rule="evenodd"/><path stroke="#00d3f2" stroke-width="5.703412073490814" stroke-linejoin="round" stroke-linecap="butt" d="m1102.311 530.6902l-156.97644 0l156.97644 -157.32288z" fill-rule="evenodd"/></g></svg>